<svg xmlns="http://www.w3.org/2000/svg" width="1100" height="760" viewBox="0 0 1100 760" role="img" aria-label="Team collaborating on puzzle pieces">
  <defs>
    <linearGradient id="bg" x1="0" y1="0" x2="0" y2="1">
      <stop offset="0" stop-color="#dbe8f5"/>
      <stop offset="1" stop-color="#edf4fa"/>
    </linearGradient>
    <linearGradient id="pieceA" x1="0" y1="0" x2="1" y2="1">
      <stop offset="0" stop-color="#4f83c0"/>
      <stop offset="1" stop-color="#3a6ea9"/>
    </linearGradient>
    <linearGradient id="pieceB" x1="0" y1="0" x2="1" y2="1">
      <stop offset="0" stop-color="#74c0df"/>
      <stop offset="1" stop-color="#4f9fca"/>
    </linearGradient>
    <linearGradient id="pieceC" x1="0" y1="0" x2="1" y2="1">
      <stop offset="0" stop-color="#69add1"/>
      <stop offset="1" stop-color="#4a93bd"/>
    </linearGradient>
  </defs>

  <rect width="1100" height="760" fill="url(#bg)"/>

  <g fill="#d4e2ef">
    <circle cx="545" cy="220" r="165"/>
    <circle cx="425" cy="275" r="145"/>
    <circle cx="655" cy="295" r="155"/>
    <circle cx="540" cy="360" r="190"/>
  </g>

  <g transform="translate(300,190)">
    <path d="M0 0h210c12 0 22 10 22 22v40c0 17 12 29 28 29h16c12 0 22 10 22 22v183c0 12-10 22-22 22h-56c-17 0-30 13-30 30v18c0 12-10 22-22 22H22c-12 0-22-10-22-22V22C0 10 10 0 22 0z" fill="url(#pieceA)"/>
    <path d="M262 98h213c12 0 22 10 22 22v228c0 12-10 22-22 22h-213c-12 0-22-10-22-22v-41c0-18-12-30-30-30h-18c-12 0-22-10-22-22V120c0-12 10-22 22-22h18c18 0 30-12 30-30V22c0-12 10-22 22-22z" fill="url(#pieceB)"/>
    <path d="M78 330h216c12 0 22 10 22 22v176c0 12-10 22-22 22H78c-12 0-22-10-22-22V352c0-12 10-22 22-22z" fill="url(#pieceC)"/>
    <path d="M320 330h216c12 0 22 10 22 22v176c0 12-10 22-22 22H320c-12 0-22-10-22-22V352c0-12 10-22 22-22z" fill="url(#pieceA)"/>
  </g>

  <g transform="translate(172,286)">
    <rect x="0" y="0" width="18" height="370" fill="#3e5f88"/>
    <rect x="104" y="0" width="18" height="370" fill="#3e5f88"/>
    <g stroke="#3e5f88" stroke-width="7">
      <line x1="18" y1="44" x2="104" y2="44"/>
      <line x1="18" y1="98" x2="104" y2="98"/>
      <line x1="18" y1="152" x2="104" y2="152"/>
      <line x1="18" y1="206" x2="104" y2="206"/>
      <line x1="18" y1="260" x2="104" y2="260"/>
      <line x1="18" y1="314" x2="104" y2="314"/>
    </g>
  </g>

  <g fill="#223f67">
    <circle cx="300" cy="210" r="25"/>
    <rect x="276" y="235" width="48" height="124" rx="20"/>
    <rect x="258" y="258" width="24" height="84" rx="11"/>
    <rect x="319" y="258" width="24" height="84" rx="11"/>
    <rect x="275" y="360" width="20" height="114" rx="9"/>
    <rect x="303" y="360" width="20" height="114" rx="9"/>
  </g>

  <g fill="#f2b08a" transform="translate(608,118)">
    <circle cx="44" cy="42" r="21"/>
    <rect x="25" y="62" width="38" height="58" rx="14"/>
    <rect x="0" y="72" width="25" height="46" rx="10"/>
    <rect x="63" y="72" width="25" height="46" rx="10"/>
    <rect x="38" y="120" width="20" height="80" rx="10" transform="rotate(18 48 160)"/>
    <rect x="62" y="122" width="20" height="80" rx="10" transform="rotate(-25 72 162)"/>
  </g>

  <g fill="#0f3f87" transform="translate(790,432)">
    <circle cx="45" cy="40" r="23"/>
    <rect x="24" y="61" width="42" height="58" rx="15"/>
    <rect x="4" y="69" width="24" height="58" rx="10" transform="rotate(20 16 98)"/>
    <rect x="64" y="69" width="24" height="58" rx="10" transform="rotate(-20 76 98)"/>
    <rect x="29" y="118" width="18" height="130" rx="9" transform="rotate(10 38 184)"/>
    <rect x="50" y="118" width="18" height="130" rx="9" transform="rotate(-8 59 184)"/>
  </g>

  <g fill="#f6fbff" transform="translate(410,430)">
    <circle cx="50" cy="48" r="26" fill="#223f67"/>
    <rect x="22" y="72" width="56" height="64" rx="18"/>
    <rect x="0" y="80" width="24" height="84" rx="11" transform="rotate(18 12 122)"/>
    <rect x="76" y="80" width="24" height="84" rx="11" transform="rotate(-18 88 122)"/>
    <rect x="30" y="136" width="18" height="122" rx="9" fill="#0f4fa8"/>
    <rect x="53" y="136" width="18" height="122" rx="9" fill="#0f4fa8"/>
  </g>
</svg>
